HIERARCHY
ROOT Hips
{
  OFFSET -187.679 86.5976 -156.378
  CHANNELS 6 Xposition Yposition Zposition Zrotation Xrotation Yrotation
  JOINT LeftUpLeg
  {
    OFFSET 8.64259 1.95398 -2.38835
    CHANNELS 3 Zrotation Xrotation Yrotation
    JOINT LeftLeg
    {
      OFFSET 43.7702 0 0
      CHANNELS 3 Zrotation Xrotation Yrotation
      JOINT LeftFoot
      {
        OFFSET 40.6238 0 0
        CHANNELS 3 Zrotation Xrotation Yrotation
        JOINT LeftToeBase
        {
          OFFSET 12.7242 0 0
          CHANNELS 3 Zrotation Xrotation Yrotation
          End Site
          {
            OFFSET 0 0 0
          }
        }
      }
    }
  }
  JOINT RightUpLeg
  {
    OFFSET -8.2249 1.95398 -2.59336
    CHANNELS 3 Zrotation Xrotation Yrotation
    JOINT RightLeg
    {
      OFFSET 43.5653 0 0
      CHANNELS 3 Zrotation Xrotation Yrotation
      JOINT RightFoot
      {
        OFFSET 40.6238 0 0
        CHANNELS 3 Zrotation Xrotation Yrotation
        JOINT RightToeBase
        {
          OFFSET 12.7242 0 0
          CHANNELS 3 Zrotation Xrotation Yrotation
          End Site
          {
            OFFSET 0 0 0
          }
        }
      }
    }
  }
  JOINT Spine
  {
    OFFSET 0.165834 0.87714 6.61349
    CHANNELS 3 Zrotation Xrotation Yrotation
    JOINT Spine1
    {
      OFFSET 7.38963 1.71661e-005 0
      CHANNELS 3 Zrotation Xrotation Yrotation
      JOINT Spine2
      {
        OFFSET 11.9445 1.14441e-005 0
        CHANNELS 3 Zrotation Xrotation Yrotation
        JOINT Spine3
        {
          OFFSET 14.7254 4.19617e-005 0
          CHANNELS 3 Zrotation Xrotation Yrotation
          JOINT Spine4
          {
            OFFSET 10.9679 0 0
            CHANNELS 3 Zrotation Xrotation Yrotation
            JOINT RightShoulder
            {
              OFFSET 2.46616 -1.6653 3.69651
              CHANNELS 3 Zrotation Xrotation Yrotation
              JOINT RightArm
              {
                OFFSET 13.0012 0 0
                CHANNELS 3 Zrotation Xrotation Yrotation
                JOINT RightForeArm
                {
                  OFFSET 28.7848 1.52588e-005 0
                  CHANNELS 3 Zrotation Xrotation Yrotation
                  JOINT RightHand
                  {
                    OFFSET 26.5688 1.52588e-005 0
                    CHANNELS 3 Zrotation Xrotation Yrotation
                    End Site
                    {
                      OFFSET 0 0 0
                    }
                  }
                }
              }
            }
            JOINT LeftShoulder
            {
              OFFSET 2.38034 -1.29275 -3.7523
              CHANNELS 3 Zrotation Xrotation Yrotation
              JOINT LeftArm
              {
                OFFSET 16.3182 6.10352e-005 0
                CHANNELS 3 Zrotation Xrotation Yrotation
                JOINT LeftForeArm
                {
                  OFFSET 27.0901 0 0
                  CHANNELS 3 Zrotation Xrotation Yrotation
                  JOINT LeftHand
                  {
                    OFFSET 24.5451 1.52588e-005 0
                    CHANNELS 3 Zrotation Xrotation Yrotation
                    End Site
                    {
                      OFFSET 0 0 0
                    }
                  }
                }
              }
            }
            JOINT Neck
            {
              OFFSET 5.0226 -0.0266342 0
              CHANNELS 3 Zrotation Xrotation Yrotation
              JOINT Head
              {
                OFFSET 6.69363 2.86102e-005 0
                CHANNELS 3 Zrotation Xrotation Yrotation
                End Site
                {
                  OFFSET 0 0 0
                }
              }
            }
          }
        }
      }
    }
  }
}
MOTION
Frames:	16
Frame Time:	0.0416667
-6.89834 99.498 368.093 -143.042 -81.1413 -143.789 -173.722 -8.73598 90.2616 -11.5727 17.5683 8.15433 67.7243 4.42869 0.862091 20.81 -4.31239 2.85582 173.537 -4.21436 87.612 -15.0595 2.47682 0.596113 65.0934 -2.08335 0.752291 26.531 -1.38834 3.37735 0.376392 7.57418 -90.0746 11.7264 0.713602 -0.223783 0.0556144 0.703052 -0.254971 -22.4811 0.747867 0.00104673 -2.46846 0.747861 0.00103851 89.0644 -46.5246 -102.95 29.0411 -24.9619 -13.9072 -15.6158 -18.2733 -15.8897 -13.0295 -0.264051 -2.72309 -91.1341 -47.4514 76.6537 -27.824 27.0784 -9.36022 6.72258 -11.2538 -12.9181 -6.71376 -0.148256 -2.56493 7.16854 -2.37779 -2.58036 2.25971 -1.64882 3.60109 
-6.92732 99.4939 368.093 -142.875 -81.1473 -143.459 -173.526 -8.54963 90.6506 -11.8082 17.2545 8.05182 69.9143 5.12962 -0.409361 15.427 -7.31864 4.14256 173.537 -4.28336 87.7555 -14.9423 2.12479 0.67847 65.1283 -2.15145 0.529017 26.3794 -1.28304 2.94706 0.342144 7.55693 -90.0605 11.7615 0.652103 -0.189351 0.0906702 0.643142 -0.217878 -22.4458 0.678851 0.0153894 -2.43319 0.678867 0.0153986 87.7414 -47.5326 -104.742 28.104 -23.8136 -13.368 -16.081 -19.4542 -16.4227 -15.6382 -0.393345 -2.12244 -90.4774 -45.9463 77.3061 -28.63 28.1463 -8.63679 6.65766 -11.853 -14.3916 -5.98485 -0.07208 -4.67657 6.58858 -2.11634 -3.88039 2.63257 -1.08399 4.85266 
-7.01623 99.4998 368.117 -143.262 -81.4309 -143.871 -173.609 -8.41452 90.6916 -11.7102 17.2825 8.21338 69.6886 4.88109 -0.922733 16.1572 -6.94287 4.05466 173.537 -4.16939 87.8001 -14.8279 2.30109 0.783347 65.0314 -2.11642 0.419559 26.405 -1.35655 3.19814 0.213566 7.56696 -89.8712 11.7392 0.485253 0.205639 0.0683594 0.493832 0.184068 -22.4672 0.40101 0.341968 -2.45453 0.40102 0.341966 84.768 -50.1471 -108.508 25.9831 -24.218 -13.4784 -15.6326 -18.119 -15.9963 -15.4277 -0.376427 -2.23884 -88.6419 -42.9419 79.5109 -30.3498 26.3036 -8.81569 8.61488 -6.71901 -14.1001 -7.23774 -0.106749 -3.6772 6.44127 -2.04198 -4.80062 2.90711 -0.907628 3.12368 
-7.32348 99.5203 368.14 -147.278 -81.8921 -147.9 -173.035 -8.13671 91.3874 -11.824 18.6715 7.72496 69.7151 4.93898 -0.863519 16.07 -6.93859 3.96067 173.771 -4.16631 88.1558 -14.9447 2.81957 0.77849 64.8457 -1.96927 0.180256 26.4311 -1.28481 2.98398 0.185119 7.56585 -89.9329 11.7421 0.399732 0.0915422 0.0712395 0.403375 0.0738573 -22.4643 0.353737 0.207447 -2.45165 0.353739 0.207445 85.5294 -49.4102 -107.591 26.7034 -24.6715 -13.3317 -15.3035 -17.6596 -15.4077 -13.1764 -0.20128 -3.30419 -89.3038 -44.1977 78.7342 -29.1618 27.4193 -8.65091 8.16656 -8.00483 -14.6804 -8.06319 -0.100977 -4.0331 6.20098 -1.99708 -3.56765 3.24712 -1.14612 2.28115 
-7.81472 99.4862 368.036 -150.067 -81.5829 -150.795 -172.56 -8.20194 91.9946 -12.223 18.7552 7.35837 70.0702 4.99568 -1.50179 15.9859 -6.77397 3.53392 173.908 -4.30276 88.4166 -15.6624 3.17126 0.737548 65.1665 -1.94281 0.0638281 26.3133 -1.28404 2.91189 0.197599 7.63619 -89.922 11.6013 0.429654 0.110979 -0.0696103 0.434124 0.0919539 -22.6052 0.376431 0.234978 -2.59254 0.376437 0.234986 85.3972 -49.7221 -107.693 26.2684 -25.9977 -12.9363 -14.7535 -15.5855 -15.2363 -10.1719 -0.0484516 -4.64515 -89.2469 -44.901 78.9855 -28.0396 25.1282 -9.29782 8.80252 -6.50769 -13.5025 -2.5154 -0.0894706 -1.99928 4.98387 -2.54402 -3.38904 4.44844 -1.77225 1.62065 
-8.46519 99.4349 367.668 -149.783 -81.4849 -150.997 -172.293 -7.57695 92.2535 -12.9511 19.0841 6.78344 70.0117 5.04325 -1.63765 15.8926 -7.0719 4.06705 173.858 -3.56292 88.3556 -16.8791 3.04587 0.752559 65.7265 -1.96882 -0.0474511 26.2216 -1.22403 2.66595 0.295606 7.66829 -89.8244 11.5365 0.670272 0.281156 -0.134276 0.681991 0.251382 -22.6702 0.554781 0.469604 -2.65756 0.554777 0.469603 84.7627 -50.035 -108.549 26.0322 -24.9264 -12.8836 -15.1114 -16.6354 -15.1881 -11.6983 -0.144112 -3.68317 -89.2863 -45.2079 78.9926 -27.1597 24.3418 -8.58096 8.19695 -9.62076 -14.8693 -1.91565 -0.0857814 -3.99212 5.56622 -1.84609 -3.71323 3.33377 -0.970568 2.61682 
-9.41578 99.3121 366.902 -159.271 -81.9016 -161.03 -172.185 -5.58004 92.6557 -15.617 20.9405 6.06858 70.0358 5.32643 -1.47233 16.6069 -6.75057 4.08801 174.289 -2.86829 89.0314 -18.167 4.75955 0.657614 66.4385 -1.80442 -0.323344 25.3565 -1.4376 2.84108 0.315944 7.76534 -89.7856 11.3419 0.728704 0.353747 -0.328862 0.743566 0.321325 -22.8648 0.588694 0.556399 -2.85213 0.588699 0.556399 84.9929 -49.5325 -108.364 25.9105 -25.4381 -13.0768 -15.0989 -16.3337 -15.4611 -10.9868 -0.119254 -3.90569 -89.5794 -46.3265 78.7857 -26.2765 20.6854 -8.25582 7.62698 -12.4595 -14.8719 -3.41374 -0.0866858 -4.73243 4.77684 -2.65707 -2.49588 4.69813 -2.09326 0.994644 
-10.5484 99.0207 365.512 -178.227 -82.8808 179.23 -173.149 -0.357778 93.3584 -21.0118 23.2458 5.231 69.4531 5.73988 -0.735329 17.2582 -7.00457 5.28578 174.051 -0.0659489 88.7063 -21.0198 6.67691 1.47966 67.7101 -1.62152 -0.809274 24.2872 -1.65018 2.88918 0.371202 7.85378 -89.6915 11.1644 0.882214 0.528137 -0.5063 0.904604 0.488789 -23.0422 0.682702 0.768862 -3.02954 0.682706 0.768864 85.6465 -48.8977 -107.574 26.152 -26.0116 -13.5632 -15.1666 -16.839 -15.7 -9.98657 -0.0351783 -4.80054 -89.9726 -46.7348 78.2684 -23.5098 19.3625 -6.04046 7.25155 -12.6869 -19.7047 -0.230713 -0.00650212 -1.52042 5.59355 -4.0167 -1.08013 5.31799 -3.83854 -1.59501 
-11.6649 98.5424 363.65 147.051 -82.8123 143.673 -173.728 6.43398 93.3006 -28.0555 27.3266 5.09183 67.8962 4.62011 -1.16983 17.9998 -6.59886 5.16691 173.249 3.2241 88.4755 -24.2265 9.42292 3.04673 68.7895 -1.24816 -0.872249 23.6386 -1.99276 3.5442 0.344483 7.89289 -89.5672 11.0846 0.886588 0.775726 -0.586281 0.91988 0.735937 -23.1209 0.612476 1.00631 -3.10826 0.612481 1.0063 85.6571 -48.8607 -107.57 26.2275 -25.2284 -12.8229 -15.6646 -16.1351 -16.5895 -10.2174 -0.0611486 -4.49502 -89.2103 -45.8066 79.2455 -22.9887 16.42 -6.82243 9.1724 -9.10016 -19.9078 -1.86973 -0.0758532 -1.70456 7.21688 -6.03434 -3.00027 6.7842 -5.27346 0.115296 
-12.4301 98.2302 362.369 129.577 -80.113 125.758 -173.703 10.3246 93.2464 -36.5032 26.736 4.96593 73.9346 6.57774 -3.11263 9.22225 -14.1933 10.8011 172.944 4.43496 88.4624 -26.0853 12.7751 3.92925 69.6104 -0.533444 -0.63904 22.569 -2.23716 3.65234 0.306539 8.01436 -89.5747 10.8419 0.806955 0.770545 -0.828992 0.840089 0.734275 -23.3634 0.538076 0.977434 -3.35071 0.538077 0.977434 85.9339 -48.6747 -107.205 25.5779 -24.6238 -11.9464 -15.6456 -15.7927 -16.2001 -9.96376 -0.053814 -4.57387 -89.6515 -45.0597 78.3834 -23.8606 14.4165 -4.40303 8.25094 -11.1685 -20.0471 -1.75823 -0.0842808 -1.86681 8.08898 -6.90448 -4.45328 7.83239 -5.74272 0.614606 
-12.8103 98.1244 361.502 127.377 -78.0033 123.388 -173.544 11.3726 93.2781 -47.8822 26.3574 5.95588 70.1209 5.07681 -1.98075 17.7829 -6.54009 4.90563 172.593 4.50501 88.3398 -27.3323 13.8767 4.42742 69.6927 -0.29159 -0.743774 22.6024 -2.23659 3.66862 0.254433 8.02583 -89.5921 10.8195 0.695052 0.746568 -0.851467 0.727228 0.715249 -23.3856 0.438547 0.920932 -3.37294 0.43855 0.920932 86.5675 -48.6156 -106.251 26.5549 -22.8822 -10.0097 -15.653 -15.2542 -15.6533 -10.3281 -0.0599873 -4.51289 -89.0109 -44.7605 79.3274 -25.6091 19.0058 -1.964 7.64775 -13.3254 -17.7259 -6.89433 0.0472987 -4.92323 6.33143 -6.93818 -5.81621 8.05946 -5.59314 0.524927 
-12.7845 97.8782 360.785 128.698 -76.6937 124.915 -172.659 8.24892 94.4005 -54.4165 29.2287 7.09354 68.6054 4.58021 -0.832788 18.1839 -6.33388 4.77678 172.485 4.31531 88.4228 -28.4131 14.2693 4.64275 70.2687 -0.129076 -0.812629 22.2625 -2.19739 3.37055 0.0806765 7.99634 -89.6468 10.8796 0.323922 0.6719 -0.791519 0.353189 0.656987 -23.3253 0.107021 0.738196 -3.31268 0.107021 0.738186 86.8167 -48.8742 -105.792 27.7395 -21.9003 -7.66523 -15.8807 -14.1255 -16.0255 -10.0257 -0.0367704 -4.78381 -89.0018 -44.4523 79.2732 -28.0284 16.2426 1.4052 8.1053 -12.0499 -14.1536 -5.96492 -0.0624016 -3.42777 5.16096 -6.37208 -6.01061 7.20256 -5.15958 -0.354098 
-12.3458 97.7572 359.615 129.701 -75.884 126.422 -171.717 3.03843 96.2655 -54.1197 34.2732 8.67282 67.1757 3.92794 -0.501665 16.9683 -6.83636 4.63127 172.418 4.45262 88.4711 -28.8038 14.4832 4.81763 70.0165 0.0942395 -0.57848 21.3136 -2.41116 3.4543 -0.0985173 7.91939 -89.7683 11.0351 -0.0886506 0.469519 -0.635966 -0.0678995 0.472955 -23.1706 -0.225669 0.421162 -3.15792 -0.22566 0.421169 87.2468 -48.8347 -105.143 29.4021 -20.8203 -4.81565 -15.9541 -13.1173 -16.0923 -10.0105 -0.0586998 -4.51588 -89.3234 -45.2476 78.943 -28.3155 19.2725 1.6893 7.68777 -12.3184 -9.71019 -4.52084 -0.117728 -2.53545 3.88242 -5.93393 -6.50679 7.20319 -4.59727 1.05618 
-11.366 97.7395 357.847 133.834 -74.8347 131.184 -170.216 -4.01297 98.3899 -47.3731 38.4787 9.71674 69.3087 4.29741 -2.57324 18.1735 -6.29833 4.64079 172.035 3.91301 88.032 -28.597 13.3618 5.06435 69.1773 0.235626 -1.0187 20.5762 -2.68172 3.79811 -0.2213 7.96073 -89.933 10.9527 -0.409521 0.172306 -0.718234 -0.401536 0.19016 -23.2538 -0.442374 0.0412581 -3.24116 -0.442369 0.041264 87.6327 -48.4729 -104.651 31.1535 -19.9275 -2.4447 -16.0286 -13.4711 -15.8031 -10.1018 -0.0633221 -4.49109 -90.1099 -46.1876 77.9288 -27.9161 19.7218 -0.588974 7.91874 -11.7213 -8.12192 -4.94949 -0.0940448 -3.78001 2.87394 -5.56013 -5.74659 7.08809 -4.45409 0.67108 
-10.0069 97.4498 354.184 132.414 -73.6454 130.325 -168.757 -8.24201 99.9319 -38.3825 44.3843 9.52539 72.3654 5.82069 -1.24116 22.316 -2.07279 -1.12104 172.159 5.91321 87.5881 -29.1781 14.3579 4.99879 67.1135 1.10627 -0.342254 20.2167 -2.51441 3.1579 -0.472684 8.00548 -89.9898 10.8637 -0.936375 0.108027 -0.806961 -0.930717 0.149126 -23.3448 -0.925559 -0.178418 -3.33214 -0.925551 -0.178419 86.6475 -49.5393 -105.854 30.6188 -18.4604 -1.37333 -16.1799 -13.0674 -16.005 -12.128 -0.149406 -3.67256 -89.5634 -45.3365 78.5847 -27.1974 18.4563 -6.66637 8.91513 -8.78278 -8.59674 -5.06364 -0.0732269 -4.65098 2.69096 -4.53513 -8.12696 6.73551 -2.88693 2.91741 
-8.14557 97.2335 348.748 132.356 -73.4425 129.925 -169.055 -8.78179 97.9614 -34.0528 42.8143 7.94931 79.0283 9.07731 -1.35418 16.3166 -4.28982 -1.56624 172.41 8.81399 86.0394 -27.7358 14.5085 4.17772 63.2704 1.73646 0.244165 20.3929 -2.30284 2.67733 -0.537648 8.13665 -90.0142 10.6006 -1.07732 0.0683251 -1.06987 -1.07327 0.115677 -23.6084 -1.04804 -0.258649 -3.5958 -1.04804 -0.258648 85.9906 -50.22 -106.644 28.9913 -17.7874 -1.53846 -16.4612 -12.7384 -16.0823 -10.7543 -0.112051 -3.91998 -90.3431 -45.6929 77.4478 -21.213 23.6677 -14.8853 6.83062 -13.3141 -10.8613 -0.418814 -0.0579767 -2.26354 2.74495 -4.65315 -9.52845 7.08166 -2.70719 3.53201 
